<svg width="37" height="32" viewBox="0 0 37 32" fill="none" xmlns="http://www.w3.org/2000/svg">
<mask id="path-1-outside-1_26332_45420" maskUnits="userSpaceOnUse" x="-1.74846e-07" y="4" width="37" height="24" fill="black">
<rect fill="white" x="-1.74846e-07" y="4" width="37" height="24"/>
<path fill-rule="evenodd" clip-rule="evenodd" d="M29.6667 13L29.6667 6L27.4444 6L18.5556 16L27.4444 26L29.6667 26L29.6667 19L35 19L35 13L29.6667 13ZM11.8893 6L2.9997 16L11.8893 26L14.111 26L14.111 19L18.7077 19L16.0407 16L18.7077 13L14.111 13L14.111 6L11.8893 6Z"/>
</mask>
<path fill-rule="evenodd" clip-rule="evenodd" d="M29.6667 13L29.6667 6L27.4444 6L18.5556 16L27.4444 26L29.6667 26L29.6667 19L35 19L35 13L29.6667 13ZM11.8893 6L2.9997 16L11.8893 26L14.111 26L14.111 19L18.7077 19L16.0407 16L18.7077 13L14.111 13L14.111 6L11.8893 6Z" fill="#F1F2F1"/>
<path d="M29.6667 6L31.6667 6L31.6667 4L29.6667 4L29.6667 6ZM29.6667 13L27.6667 13L27.6667 15L29.6667 15L29.6667 13ZM27.4444 6L27.4444 4L26.5463 4L25.9496 4.67127L27.4444 6ZM18.5556 16L17.0607 14.6713L15.8796 16L17.0607 17.3287L18.5556 16ZM27.4444 26L25.9496 27.3287L26.5463 28L27.4444 28L27.4444 26ZM29.6667 26L29.6667 28L31.6667 28L31.6667 26L29.6667 26ZM29.6667 19L29.6667 17L27.6667 17L27.6667 19L29.6667 19ZM35 19L35 21L37 21L37 19L35 19ZM35 13L37 13L37 11L35 11L35 13ZM2.9997 16L1.50493 14.6712L0.323685 16L1.50493 17.3288L2.9997 16ZM11.8893 6L11.8893 4L10.9913 4L10.3946 4.67121L11.8893 6ZM11.8893 26L10.3946 27.3288L10.9913 28L11.8893 28L11.8893 26ZM14.111 26L14.111 28L16.111 28L16.111 26L14.111 26ZM14.111 19L14.111 17L12.111 17L12.111 19L14.111 19ZM18.7077 19L18.7077 21L23.1618 21L20.2024 17.6712L18.7077 19ZM16.0407 16L14.546 14.6712L13.3647 16L14.546 17.3288L16.0407 16ZM18.7077 13L20.2024 14.3288L23.1618 11L18.7077 11L18.7077 13ZM14.111 13L12.111 13L12.111 15L14.111 15L14.111 13ZM14.111 6L16.111 6L16.111 4L14.111 4L14.111 6ZM29.6667 6L27.6667 6L27.6667 13L29.6667 13L31.6667 13L31.6667 6L29.6667 6ZM27.4444 6L27.4444 8L29.6667 8L29.6667 6L29.6667 4L27.4444 4L27.4444 6ZM18.5556 16L20.0504 17.3287L28.9393 7.32873L27.4444 6L25.9496 4.67127L17.0607 14.6713L18.5556 16ZM27.4444 26L28.9393 24.6713L20.0504 14.6713L18.5556 16L17.0607 17.3287L25.9496 27.3287L27.4444 26ZM29.6667 26L29.6667 24L27.4444 24L27.4444 26L27.4444 28L29.6667 28L29.6667 26ZM29.6667 19L27.6667 19L27.6667 26L29.6667 26L31.6667 26L31.6667 19L29.6667 19ZM35 19L35 17L29.6667 17L29.6667 19L29.6667 21L35 21L35 19ZM35 13L33 13L33 19L35 19L37 19L37 13L35 13ZM29.6667 13L29.6667 15L35 15L35 13L35 11L29.6667 11L29.6667 13ZM2.9997 16L4.49446 17.3288L13.3841 7.32879L11.8893 6L10.3946 4.67121L1.50493 14.6712L2.9997 16ZM11.8893 26L13.3841 24.6712L4.49446 14.6712L2.9997 16L1.50493 17.3288L10.3946 27.3288L11.8893 26ZM14.111 26L14.111 24L11.8893 24L11.8893 26L11.8893 28L14.111 28L14.111 26ZM14.111 19L12.111 19L12.111 26L14.111 26L16.111 26L16.111 19L14.111 19ZM18.7077 19L18.7077 17L14.111 17L14.111 19L14.111 21L18.7077 21L18.7077 19ZM16.0407 16L14.546 17.3288L17.213 20.3288L18.7077 19L20.2024 17.6712L17.5354 14.6712L16.0407 16ZM18.7077 13L17.213 11.6712L14.546 14.6712L16.0407 16L17.5354 17.3288L20.2024 14.3288L18.7077 13ZM14.111 13L14.111 15L18.7077 15L18.7077 13L18.7077 11L14.111 11L14.111 13ZM14.111 6L12.111 6L12.111 13L14.111 13L16.111 13L16.111 6L14.111 6ZM11.8893 6L11.8893 8L14.111 8L14.111 6L14.111 4L11.8893 4L11.8893 6Z" fill="black" mask="url(#path-1-outside-1_26332_45420)"/>
</svg>
