<svg width="38" height="32" viewBox="0 0 38 32" fill="none" xmlns="http://www.w3.org/2000/svg">
<g clip-path="url(#clip0_3204_77578)">
<path fill-rule="evenodd" clip-rule="evenodd" d="M7.83333 19V26H10.0556L18.9444 16L10.0556 6H7.83333V13H2.5V19H7.83333ZM25.6107 26L34.5003 16L25.6107 6H23.389V13H18.7923L21.4593 16L18.7923 19H23.389V26H25.6107Z" fill="#F1F2F1"/>
<mask id="mask0_3204_77578" style="mask-type:luminance" maskUnits="userSpaceOnUse" x="0" y="4" width="38" height="24">
<path d="M37.5 4H0.5V28H37.5V4Z" fill="white"/>
<path fill-rule="evenodd" clip-rule="evenodd" d="M7.83333 19V26H10.0556L18.9444 16L10.0556 6H7.83333V13H2.5V19H7.83333ZM25.6107 26L34.5003 16L25.6107 6H23.389V13H18.7923L21.4593 16L18.7923 19H23.389V26H25.6107Z" fill="black"/>
</mask>
<g mask="url(#mask0_3204_77578)">
<path d="M7.83333 26H5.83333V28H7.83333V26ZM7.83333 19H9.83333V17H7.83333V19ZM10.0556 26V28H10.9537L11.5504 27.3287L10.0556 26ZM18.9444 16L20.4393 17.3287L21.6204 16L20.4393 14.6713L18.9444 16ZM10.0556 6L11.5504 4.67127L10.9537 4H10.0556V6ZM7.83333 6V4H5.83333V6H7.83333ZM7.83333 13V15H9.83333V13H7.83333ZM2.5 13V11H0.5V13H2.5ZM2.5 19H0.5V21H2.5V19ZM34.5003 16L35.9951 17.3288L37.1763 16L35.9951 14.6712L34.5003 16ZM25.6107 26V28H26.5087L27.1054 27.3288L25.6107 26ZM25.6107 6L27.1054 4.67121L26.5087 4H25.6107V6ZM23.389 6V4H21.389V6H23.389ZM23.389 13V15H25.389V13H23.389ZM18.7923 13V11H14.3382L17.2976 14.3288L18.7923 13ZM21.4593 16L22.954 17.3288L24.1353 16L22.954 14.6712L21.4593 16ZM18.7923 19L17.2976 17.6712L14.3382 21H18.7923V19ZM23.389 19H25.389V17H23.389V19ZM23.389 26H21.389V28H23.389V26ZM9.83333 26V19H5.83333V26H9.83333ZM10.0556 24H7.83333V28H10.0556V24ZM17.4496 14.6713L8.56074 24.6713L11.5504 27.3287L20.4393 17.3287L17.4496 14.6713ZM8.56074 7.32873L17.4496 17.3287L20.4393 14.6713L11.5504 4.67127L8.56074 7.32873ZM7.83333 8H10.0556V4H7.83333V8ZM9.83333 13V6H5.83333V13H9.83333ZM2.5 15H7.83333V11H2.5V15ZM4.5 19V13H0.5V19H4.5ZM7.83333 17H2.5V21H7.83333V17ZM33.0055 14.6712L24.1159 24.6712L27.1054 27.3288L35.9951 17.3288L33.0055 14.6712ZM24.1159 7.32879L33.0055 17.3288L35.9951 14.6712L27.1054 4.67121L24.1159 7.32879ZM23.389 8H25.6107V4H23.389V8ZM25.389 13V6H21.389V13H25.389ZM18.7923 15H23.389V11H18.7923V15ZM22.954 14.6712L20.287 11.6712L17.2976 14.3288L19.9646 17.3288L22.954 14.6712ZM20.287 20.3288L22.954 17.3288L19.9646 14.6712L17.2976 17.6712L20.287 20.3288ZM23.389 17H18.7923V21H23.389V17ZM25.389 26V19H21.389V26H25.389ZM25.6107 24H23.389V28H25.6107V24Z" fill="black"/>
</g>
</g>
<defs>
<clipPath id="clip0_3204_77578">
<rect width="37" height="32" fill="white" transform="translate(0.5)"/>
</clipPath>
</defs>
</svg>
