<svg width="33" height="32" viewBox="0 0 33 32" fill="none" xmlns="http://www.w3.org/2000/svg">
<g clip-path="url(#clip0_3204_77610)">
<mask id="mask0_3204_77610" style="mask-type:luminance" maskUnits="userSpaceOnUse" x="0" y="0" width="33" height="32">
<path d="M32.5 0H0.5V32H32.5V0Z" fill="white"/>
</mask>
<g mask="url(#mask0_3204_77610)">
<path d="M16.5 31C24.7843 31 31.5 24.2843 31.5 16C31.5 7.71573 24.7843 1 16.5 1C8.21573 1 1.5 7.71573 1.5 16C1.5 24.2843 8.21573 31 16.5 31Z" fill="#BB74FF" stroke="black" stroke-width="2"/>
<path d="M23.682 20.996H20.462V14.038H20.378L17.802 20.996H15.254L12.65 13.926H12.566V20.996H9.5V11H14.582L16.5 16.838H16.584L18.474 11H23.682V20.996Z" fill="black"/>
</g>
</g>
<defs>
<clipPath id="clip0_3204_77610">
<rect width="32" height="32" fill="white" transform="translate(0.5)"/>
</clipPath>
</defs>
</svg>
