<svg width="33" height="32" viewBox="0 0 33 32" fill="none" xmlns="http://www.w3.org/2000/svg">
<g clip-path="url(#clip0_3204_77617)">
<mask id="mask0_3204_77617" style="mask-type:luminance" maskUnits="userSpaceOnUse" x="0" y="0" width="33" height="32">
<path d="M32.5 0H0.5V32H32.5V0Z" fill="white"/>
</mask>
<g mask="url(#mask0_3204_77617)">
<path d="M16.5 31C24.7843 31 31.5 24.2843 31.5 16C31.5 7.71573 24.7843 1 16.5 1C8.21573 1 1.5 7.71573 1.5 16C1.5 24.2843 8.21573 31 16.5 31Z" fill="#3EC5FF" stroke="black" stroke-width="2"/>
<path d="M14.4246 14.4262C14.392 14.0876 14.2167 13.8475 13.8986 13.7058C13.5805 13.5562 13.1319 13.4813 12.5528 13.4813C11.4843 13.4813 10.9501 13.7136 10.9501 14.1782C10.9501 14.375 11.0276 14.5207 11.1825 14.6152C11.3457 14.7097 11.6026 14.7766 11.9533 14.816L14.9997 15.1585C15.9784 15.2609 16.7125 15.5207 17.2018 15.938C17.6994 16.3475 17.9481 16.9538 17.9481 17.7569C17.9481 18.5128 17.7401 19.0995 17.3242 19.5168C16.9164 19.9341 16.3332 20.2215 15.5747 20.379C14.8161 20.5365 13.8496 20.6152 12.6751 20.6152C11.5577 20.6152 10.632 20.5286 9.89793 20.3554C9.16387 20.19 8.58886 19.8829 8.17289 19.4341C7.75692 18.9774 7.53262 18.3396 7.5 17.5207H10.7299C10.7625 17.9853 10.946 18.3002 11.2804 18.4656C11.623 18.6231 12.1246 18.7018 12.7852 18.7018C13.4133 18.7018 13.8741 18.6388 14.1677 18.5128C14.4613 18.3869 14.6082 18.1979 14.6082 17.9459C14.6082 17.7097 14.5062 17.5365 14.3023 17.4262C14.1065 17.316 13.817 17.2373 13.4337 17.19L10.7054 16.8593C9.71849 16.7491 8.9722 16.4971 8.46651 16.1034C7.96898 15.7097 7.72022 15.1231 7.72022 14.3436C7.71206 13.3357 8.13619 12.631 8.99259 12.2294C9.85715 11.8199 11.0724 11.6152 12.6384 11.6152C14.1963 11.6152 15.4075 11.8239 16.272 12.2412C17.1366 12.6506 17.5933 13.379 17.6423 14.4262H14.4246Z" fill="black"/>
<path d="M24.5 20.3322H21.6494V15.4779H19.019V13.659H19.7164C20.4423 13.659 20.9806 13.5252 21.3313 13.2574C21.6902 12.9818 21.943 12.5842 22.0898 12.0645H24.5V20.3322Z" fill="black"/>
</g>
</g>
<defs>
<clipPath id="clip0_3204_77617">
<rect width="32" height="32" fill="white" transform="translate(0.5)"/>
</clipPath>
</defs>
</svg>
