<svg width="33" height="32" viewBox="0 0 33 32" fill="none" xmlns="http://www.w3.org/2000/svg">
<g clip-path="url(#clip0_3204_77634)">
<mask id="mask0_3204_77634" style="mask-type:luminance" maskUnits="userSpaceOnUse" x="0" y="0" width="33" height="32">
<path d="M32.5 0H0.5V32H32.5V0Z" fill="white"/>
</mask>
<g mask="url(#mask0_3204_77634)">
<path d="M16.5 31C24.7843 31 31.5 24.2843 31.5 16C31.5 7.71573 24.7843 1 16.5 1C8.21573 1 1.5 7.71573 1.5 16C1.5 24.2843 8.21573 31 16.5 31Z" fill="#FF4646" stroke="black" stroke-width="2"/>
<path d="M12.7977 14.311C12.7657 13.9724 12.5935 13.7323 12.2813 13.5906C11.969 13.4409 11.5286 13.3661 10.9602 13.3661C9.91128 13.3661 9.38684 13.5984 9.38684 14.063C9.38684 14.2598 9.46291 14.4055 9.61504 14.5C9.77517 14.5945 10.0274 14.6614 10.3717 14.7008L13.3622 15.0433C14.323 15.1457 15.0436 15.4055 15.524 15.8228C16.0124 16.2323 16.2566 16.8386 16.2566 17.6417C16.2566 18.3976 16.0524 18.9843 15.6441 19.4016C15.2438 19.8189 14.6713 20.1063 13.9267 20.2638C13.182 20.4213 12.2332 20.5 11.0803 20.5C9.98334 20.5 9.07458 20.4134 8.35398 20.2402C7.63337 20.0748 7.0689 19.7677 6.66055 19.3189C6.25221 18.8622 6.03203 18.2244 6 17.4055H9.17066C9.20269 17.8701 9.38284 18.185 9.71112 18.3504C10.0474 18.5079 10.5398 18.5866 11.1884 18.5866C11.8049 18.5866 12.2573 18.5236 12.5455 18.3976C12.8337 18.2717 12.9779 18.0827 12.9779 17.8307C12.9779 17.5945 12.8778 17.4213 12.6776 17.311C12.4854 17.2008 12.2012 17.122 11.8249 17.0748L9.14664 16.7441C8.17783 16.6339 7.44521 16.3819 6.9488 15.9882C6.46039 15.5945 6.21618 15.0079 6.21618 14.2283C6.20817 13.2205 6.62452 12.5157 7.46523 12.1142C8.31394 11.7047 9.50694 11.5 11.0442 11.5C12.5735 11.5 13.7625 11.7087 14.6112 12.126C15.4599 12.5354 15.9083 13.2638 15.9564 14.311H12.7977Z" fill="black"/>
<path d="M21.6402 17.6068C21.2879 17.6934 20.9917 17.7997 20.7515 17.9257C20.5113 18.0438 20.3511 18.158 20.2711 18.2682H26.7445V20.217H17.0884V19.969C17.0884 19.1186 17.2805 18.4178 17.6649 17.8666C18.0492 17.3155 18.5056 16.8981 19.034 16.6147C19.5625 16.3312 20.159 16.0871 20.8235 15.8824L22.3728 15.3981C22.8372 15.2485 23.1655 15.1029 23.3577 14.9611C23.5578 14.8194 23.6579 14.6186 23.6579 14.3588C23.6579 14.0989 23.5178 13.9099 23.2376 13.7918C22.9573 13.6659 22.565 13.6029 22.0606 13.6029C21.5481 13.6029 21.1318 13.7052 20.8115 13.9099C20.4993 14.1068 20.3231 14.4178 20.2831 14.843H17.2445C17.3166 13.7328 17.7369 12.9296 18.5056 12.4336C19.2742 11.9296 20.4192 11.6777 21.9405 11.6777C23.5498 11.6777 24.7548 11.8706 25.5555 12.2564C26.3562 12.6422 26.7565 13.3115 26.7565 14.2643C26.7565 15.0596 26.4963 15.6737 25.9759 16.1068C25.4554 16.5399 24.6828 16.8745 23.6579 17.1107L21.6402 17.6068Z" fill="black"/>
</g>
</g>
<defs>
<clipPath id="clip0_3204_77634">
<rect width="32" height="32" fill="white" transform="translate(0.5)"/>
</clipPath>
</defs>
</svg>
